<svg width="19" height="19" viewBox="0 0 19 19" fill="none" xmlns="http://www.w3.org/2000/svg">
<path d="M3.59375 5.4375C3.4197 5.4375 3.25278 5.52639 3.12971 5.68463C3.00664 5.84286 2.9375 6.05747 2.9375 6.28125C2.9375 6.50503 3.00664 6.71964 3.12971 6.87787C3.25278 7.03611 3.4197 7.125 3.59375 7.125H12.7812C12.9553 7.125 13.1222 7.03611 13.2453 6.87787C13.3684 6.71964 13.4375 6.50503 13.4375 6.28125C13.4375 6.05747 13.3684 5.84286 13.2453 5.68463C13.1222 5.52639 12.9553 5.4375 12.7812 5.4375H3.59375ZM3.59375 8.8125C3.4197 8.8125 3.25278 8.90139 3.12971 9.05963C3.00664 9.21786 2.9375 9.43247 2.9375 9.65625V13.0312C2.9375 13.255 3.00664 13.4696 3.12971 13.6279C3.25278 13.7861 3.4197 13.875 3.59375 13.875H6.21875C6.3928 13.875 6.55972 13.7861 6.68279 13.6279C6.80586 13.4696 6.875 13.255 6.875 13.0312V9.65625C6.875 9.43247 6.80586 9.21786 6.68279 9.05963C6.55972 8.90139 6.3928 8.8125 6.21875 8.8125H3.59375ZM4.25 12.1875V10.5H5.5625V12.1875H4.25ZM8.84375 8.8125C8.6697 8.8125 8.50278 8.90139 8.37971 9.05963C8.25664 9.21786 8.1875 9.43247 8.1875 9.65625C8.1875 9.88003 8.25664 10.0946 8.37971 10.2529C8.50278 10.4111 8.6697 10.5 8.84375 10.5H12.7812C12.9553 10.5 13.1222 10.4111 13.2453 10.2529C13.3684 10.0946 13.4375 9.88003 13.4375 9.65625C13.4375 9.43247 13.3684 9.21786 13.2453 9.05963C13.1222 8.90139 12.9553 8.8125 12.7812 8.8125H8.84375ZM8.84375 12.1875C8.6697 12.1875 8.50278 12.2764 8.37971 12.4346C8.25664 12.5929 8.1875 12.8075 8.1875 13.0312C8.1875 13.255 8.25664 13.4696 8.37971 13.6279C8.50278 13.7861 8.6697 13.875 8.84375 13.875H12.7812C12.9553 13.875 13.1222 13.7861 13.2453 13.6279C13.3684 13.4696 13.4375 13.255 13.4375 13.0312C13.4375 12.8075 13.3684 12.5929 13.2453 12.4346C13.1222 12.2764 12.9553 12.1875 12.7812 12.1875H8.84375ZM0.3125 3.75C0.3125 2.85489 0.589062 1.99645 1.08134 1.36351C1.57363 0.730579 2.24131 0.375 2.9375 0.375H13.4375C14.1337 0.375 14.8014 0.730579 15.2937 1.36351C15.7859 1.99645 16.0625 2.85489 16.0625 3.75C16.7587 3.75 17.4264 4.10558 17.9187 4.73851C18.4109 5.37145 18.6875 6.22989 18.6875 7.125V14.7188C18.6875 15.8376 18.3418 16.9107 17.7264 17.7019C17.1111 18.493 16.2765 18.9375 15.4062 18.9375H3.59375C2.72351 18.9375 1.88891 18.493 1.27356 17.7019C0.658202 16.9107 0.3125 15.8376 0.3125 14.7188V3.75ZM15.4062 14.7188C15.2322 14.7188 15.0653 14.6299 14.9422 14.4716C14.8191 14.3134 14.75 14.0988 14.75 13.875V3.75C14.75 3.30245 14.6117 2.87322 14.3656 2.55676C14.1194 2.24029 13.7856 2.0625 13.4375 2.0625H2.9375C2.5894 2.0625 2.25556 2.24029 2.00942 2.55676C1.76328 2.87322 1.625 3.30245 1.625 3.75V14.7188C1.625 15.3901 1.83242 16.0339 2.20163 16.5086C2.57085 16.9833 3.07161 17.25 3.59375 17.25H15.4062C15.9284 17.25 16.4292 16.9833 16.7984 16.5086C17.1676 16.0339 17.375 15.3901 17.375 14.7188V7.125C17.375 6.67745 17.2367 6.24823 16.9906 5.93176C16.7444 5.61529 16.4106 5.4375 16.0625 5.4375V13.875C16.0625 14.0988 15.9934 14.3134 15.8703 14.4716C15.7472 14.6299 15.5803 14.7188 15.4062 14.7188Z" fill="white"/>
</svg>
