<svg width="18" height="14" viewBox="0 0 18 14" fill="none" xmlns="http://www.w3.org/2000/svg">
<path d="M9 0.582031C8.30381 0.582031 7.63613 0.920051 7.14384 1.52173C6.65156 2.12341 6.375 2.93946 6.375 3.79036C6.375 4.64127 6.65156 5.45732 7.14384 6.059C7.63613 6.66068 8.30381 6.9987 9 6.9987C9.69619 6.9987 10.3639 6.66068 10.8562 6.059C11.3484 5.45732 11.625 4.64127 11.625 3.79036C11.625 2.93946 11.3484 2.12341 10.8562 1.52173C10.3639 0.920051 9.69619 0.582031 9 0.582031ZM9 2.41536C9.29837 2.41536 9.58452 2.56023 9.7955 2.81809C10.0065 3.07595 10.125 3.42569 10.125 3.79036C10.125 4.15504 10.0065 4.50477 9.7955 4.76264C9.58452 5.0205 9.29837 5.16536 9 5.16536C8.70163 5.16536 8.41548 5.0205 8.2045 4.76264C7.99353 4.50477 7.875 4.15504 7.875 3.79036C7.875 3.42569 7.99353 3.07595 8.2045 2.81809C8.41548 2.56023 8.70163 2.41536 9 2.41536ZM4.125 3.33203C3.62772 3.33203 3.15081 3.57347 2.79917 4.00324C2.44754 4.43302 2.25 5.01591 2.25 5.6237C2.25 6.48536 2.6475 7.22786 3.2175 7.62203C3.4875 7.80536 3.795 7.91536 4.125 7.91536C4.455 7.91536 4.7625 7.80536 5.0325 7.62203C5.31 7.42953 5.5425 7.15453 5.715 6.82453C5.16861 5.95422 4.87326 4.88736 4.875 3.79036V3.5337C4.65 3.40536 4.395 3.33203 4.125 3.33203ZM13.875 3.33203C13.605 3.33203 13.35 3.40536 13.125 3.5337V3.79036C13.125 4.89036 12.8325 5.9537 12.285 6.82453C12.375 6.9987 12.4725 7.1362 12.585 7.2737C12.9309 7.68354 13.3933 7.91354 13.875 7.91536C14.205 7.91536 14.5125 7.80536 14.7825 7.62203C15.3525 7.22786 15.75 6.48536 15.75 5.6237C15.75 5.01591 15.5525 4.43302 15.2008 4.00324C14.8492 3.57347 14.3723 3.33203 13.875 3.33203ZM9 8.83203C7.245 8.83203 3.75 9.90453 3.75 12.0404V13.4154H14.25V12.0404C14.25 9.90453 10.755 8.83203 9 8.83203ZM3.5325 9.3362C2.085 9.54703 0 10.4454 0 12.0404V13.4154H2.25V11.6462C2.25 10.7204 2.7675 9.95036 3.5325 9.3362ZM14.4675 9.3362C15.2325 9.95036 15.75 10.7204 15.75 11.6462V13.4154H18V12.0404C18 10.4454 15.915 9.54703 14.4675 9.3362ZM9 10.6654C10.1475 10.6654 11.43 11.1237 12.1725 11.582H5.8275C6.57 11.1237 7.8525 10.6654 9 10.6654Z" fill="white"/>
</svg>
