<svg width="19" height="23" viewBox="0 0 19 23" fill="none" xmlns="http://www.w3.org/2000/svg">
<path d="M18.0312 3.25V1.6875C18.0312 1.2731 17.893 0.875671 17.6468 0.582646C17.4007 0.28962 17.0668 0.125 16.7188 0.125H2.28125C1.93315 0.125 1.59931 0.28962 1.35317 0.582646C1.10703 0.875671 0.96875 1.2731 0.96875 1.6875V3.25C0.96875 3.6644 1.10703 4.06183 1.35317 4.35485C1.59931 4.64788 1.93315 4.8125 2.28125 4.8125V14.1875H1.625C1.45095 14.1875 1.28403 14.2698 1.16096 14.4163C1.03789 14.5628 0.96875 14.7615 0.96875 14.9688C0.96875 15.176 1.03789 15.3747 1.16096 15.5212C1.28403 15.6677 1.45095 15.75 1.625 15.75H8.84375V17.4492C8.40589 17.6335 8.03686 17.9961 7.80187 18.473C7.56688 18.9499 7.48107 19.5103 7.5596 20.0553C7.63814 20.6002 7.87596 21.0945 8.23104 21.4509C8.58611 21.8072 9.03558 22.0027 9.5 22.0027C9.96442 22.0027 10.4139 21.8072 10.769 21.4509C11.124 21.0945 11.3619 20.6002 11.4404 20.0553C11.5189 19.5103 11.4331 18.9499 11.1981 18.473C10.9631 17.9961 10.5941 17.6335 10.1562 17.4492V15.75H17.375C17.549 15.75 17.716 15.6677 17.839 15.5212C17.9621 15.3747 18.0312 15.176 18.0312 14.9688C18.0312 14.7615 17.9621 14.5628 17.839 14.4163C17.716 14.2698 17.549 14.1875 17.375 14.1875H16.7188V4.8125C17.0668 4.8125 17.4007 4.64788 17.6468 4.35485C17.893 4.06183 18.0312 3.6644 18.0312 3.25ZM9.5 20.4375C9.37021 20.4375 9.24333 20.3917 9.13541 20.3058C9.02749 20.22 8.94337 20.098 8.8937 19.9552C8.84403 19.8125 8.83104 19.6554 8.85636 19.5038C8.88168 19.3523 8.94418 19.2131 9.03596 19.1038C9.12774 18.9946 9.24467 18.9202 9.37197 18.89C9.49927 18.8599 9.63122 18.8753 9.75114 18.9345C9.87105 18.9936 9.97354 19.0937 10.0457 19.2222C10.1178 19.3507 10.1562 19.5017 10.1562 19.6562C10.1562 19.8635 10.0871 20.0622 9.96404 20.2087C9.84097 20.3552 9.67405 20.4375 9.5 20.4375ZM2.28125 1.6875H16.7188V3.25H2.28125V1.6875ZM15.4062 14.1875H3.59375V4.8125H15.4062V14.1875Z" fill="white"/>
</svg>
