<svg width="19" height="16" viewBox="0 0 19 16" fill="none" xmlns="http://www.w3.org/2000/svg">
<path d="M18.3594 14.875C18.3594 15.1485 18.2557 15.4108 18.0711 15.6042C17.8865 15.7976 17.6361 15.9062 17.375 15.9062H1.625C1.36393 15.9062 1.11355 15.7976 0.928942 15.6042C0.744336 15.4108 0.640625 15.1485 0.640625 14.875V1.125C0.640625 0.851495 0.744336 0.589193 0.928942 0.395796C1.11355 0.202399 1.36393 0.09375 1.625 0.09375C1.88607 0.09375 2.13645 0.202399 2.32106 0.395796C2.50566 0.589193 2.60937 0.851495 2.60938 1.125V9.63281L6.17773 5.89453C6.26919 5.79839 6.37785 5.72211 6.49751 5.67006C6.61716 5.61801 6.74544 5.59122 6.875 5.59122C7.00456 5.59122 7.13284 5.61801 7.25249 5.67006C7.37215 5.72211 7.48081 5.79839 7.57227 5.89453L9.5 7.91406L13.6836 3.53125H12.7812C12.5202 3.53125 12.2698 3.4226 12.0852 3.2292C11.9006 3.03581 11.7969 2.7735 11.7969 2.5C11.7969 2.2265 11.9006 1.96419 12.0852 1.7708C12.2698 1.5774 12.5202 1.46875 12.7812 1.46875H16.0625C16.3236 1.46875 16.574 1.5774 16.7586 1.7708C16.9432 1.96419 17.0469 2.2265 17.0469 2.5V5.9375C17.0469 6.211 16.9432 6.47331 16.7586 6.6667C16.574 6.8601 16.3236 6.96875 16.0625 6.96875C15.8014 6.96875 15.551 6.8601 15.3664 6.6667C15.1818 6.47331 15.0781 6.211 15.0781 5.9375V4.99219L10.1973 10.1055C10.1058 10.2016 9.99715 10.2779 9.87749 10.3299C9.75784 10.382 9.62956 10.4088 9.5 10.4088C9.37044 10.4088 9.24216 10.382 9.12251 10.3299C9.00285 10.2779 8.89419 10.2016 8.80273 10.1055L6.875 8.08594L2.60938 12.5547V13.8438H17.375C17.6361 13.8438 17.8865 13.9524 18.0711 14.1458C18.2557 14.3392 18.3594 14.6015 18.3594 14.875Z" fill="white"/>
</svg>
