<svg width="19" height="21" viewBox="0 0 19 21" fill="none" xmlns="http://www.w3.org/2000/svg">
<path d="M9.5 15.75C12.3995 15.75 14.75 13.3995 14.75 10.5C14.75 7.60051 12.3995 5.25 9.5 5.25C6.60051 5.25 4.25 7.60051 4.25 10.5C4.25 13.3995 6.60051 15.75 9.5 15.75Z" stroke="white" stroke-width="2" stroke-linecap="round" stroke-linejoin="round"/>
<path d="M9.5 5.25C10.4665 5.25 11.25 4.4665 11.25 3.5C11.25 2.5335 10.4665 1.75 9.5 1.75C8.5335 1.75 7.75 2.5335 7.75 3.5C7.75 4.4665 8.5335 5.25 9.5 5.25Z" stroke="white" stroke-width="2" stroke-linecap="round" stroke-linejoin="round"/>
<path d="M15.625 8.75C16.5915 8.75 17.375 7.9665 17.375 7C17.375 6.0335 16.5915 5.25 15.625 5.25C14.6585 5.25 13.875 6.0335 13.875 7C13.875 7.9665 14.6585 8.75 15.625 8.75Z" stroke="white" stroke-width="2" stroke-linecap="round" stroke-linejoin="round"/>
<path d="M3.375 8.75C4.3415 8.75 5.125 7.9665 5.125 7C5.125 6.0335 4.3415 5.25 3.375 5.25C2.4085 5.25 1.625 6.0335 1.625 7C1.625 7.9665 2.4085 8.75 3.375 8.75Z" stroke="white" stroke-width="2" stroke-linecap="round" stroke-linejoin="round"/>
<path d="M3.375 15.75C4.3415 15.75 5.125 14.9665 5.125 14C5.125 13.0335 4.3415 12.25 3.375 12.25C2.4085 12.25 1.625 13.0335 1.625 14C1.625 14.9665 2.4085 15.75 3.375 15.75Z" stroke="white" stroke-width="2" stroke-linecap="round" stroke-linejoin="round"/>
<path d="M15.625 15.75C16.5915 15.75 17.375 14.9665 17.375 14C17.375 13.0335 16.5915 12.25 15.625 12.25C14.6585 12.25 13.875 13.0335 13.875 14C13.875 14.9665 14.6585 15.75 15.625 15.75Z" stroke="white" stroke-width="2" stroke-linecap="round" stroke-linejoin="round"/>
<path d="M6 19.25L9.5 10.5L13 19.25" stroke="white" stroke-width="2" stroke-linecap="round" stroke-linejoin="round"/>
</svg>
